<?xml version="1.0" encoding="UTF-8"?>
<svg id="Ebene_1" data-name="Ebene 1" xmlns="http://www.w3.org/2000/svg" viewBox="0 0 512 512">
  <defs>
    <style>
      .cls-1 {
        fill: #5bb134;
      }
    </style>
  </defs>
  <path class="cls-1" d="M284.23,493.1c3.08,2.02,6.15,4.11,9.25,6.11.37-.44.71-.81,1.12-1.31,60.63-70.18,92.7-153.62,92.7-241.75s-32.09-171.54-92.72-241.75c-.41-.42-.74-.9-1.12-1.31-3.11,2.04-6.17,4.07-9.25,6.12-9.92,6.62-12.09,20.25-4.71,29.62,48.57,61.27,74.13,132.54,74.13,207.31s-25.55,146.04-74.13,207.35c-7.39,9.36-5.22,22.96,4.71,29.6"/>
  <path class="cls-1" d="M211.33,444.78c2.4,1.63,4.85,3.27,7.26,4.86.26-.32.54-.63.83-.99,47.47-56.19,72.58-122.53,72.58-192.49s-25.1-136.37-72.58-192.48c-.31-.32-.58-.65-.83-.99-2.41,1.62-4.86,3.21-7.26,4.81-9.79,6.48-12.06,19.82-5.04,29.2,35.95,47.56,54.78,102.15,54.78,159.45s-18.83,111.9-54.78,159.43c-7.02,9.38-4.75,22.76,5.04,29.2"/>
  <path class="cls-1" d="M135.44,394.56c1.69,1.07,3.41,2.3,5.1,3.36.19-.17.4-.4.54-.64,34.95-41.11,53.56-89.7,53.56-141.13s-18.61-100.08-53.56-141.15c-.14-.22-.35-.44-.54-.62-1.68,1.13-3.4,2.19-5.1,3.32-9.61,6.4-12.05,19.46-5.25,28.83,23.68,32.95,36.17,70.41,36.17,109.61s-12.49,76.63-36.17,109.61c-6.8,9.33-4.36,22.38,5.25,28.8"/>
</svg>